<?xml version="1.0" standalone="no"?>
<!DOCTYPE svg PUBLIC "-//W3C//DTD SVG 20010904//EN"
 "http://www.w3.org/TR/2001/REC-SVG-20010904/DTD/svg10.dtd">
<svg version="1.0" xmlns="http://www.w3.org/2000/svg"
 width="612.000000pt" height="612.000000pt" viewBox="0 0 612.000000 612.000000"
 preserveAspectRatio="xMidYMid meet">
<metadata>
Created by potrace 1.14, written by Peter Selinger 2001-2017
</metadata>
<g transform="translate(0.000000,612.000000) scale(0.100000,-0.100000)"
fill="#000000" stroke="none">
<path d="M2910 6039 c0 -6 -6 -9 -12 -6 -7 2 -28 -3 -47 -10 -28 -12 -33 -12
-28 -1 3 8 -2 14 -13 14 -10 0 -17 -3 -14 -7 2 -4 -4 -13 -13 -20 -9 -8 -14
-9 -11 -4 4 6 3 17 -3 25 -7 13 -9 12 -9 -2 0 -9 -5 -20 -12 -24 -7 -5 -8 -3
-3 6 6 10 4 12 -8 7 -10 -4 -17 -1 -17 5 0 7 -7 3 -16 -8 -8 -10 -13 -14 -10
-7 4 7 -1 10 -11 8 -10 -2 -22 -4 -27 -4 -4 -1 -6 -7 -3 -14 5 -14 -38 -16
-50 -2 -5 4 -3 5 4 1 6 -3 14 -2 17 3 7 11 -13 9 -31 -2 -7 -5 -18 -5 -24 -2
-6 4 -17 -1 -25 -11 -14 -18 -15 -18 -10 6 3 14 3 19 0 12 -3 -6 -11 -9 -16
-6 -6 4 -8 2 -5 -3 4 -6 0 -14 -9 -17 -10 -4 -13 -2 -8 7 6 9 5 9 -7 0 -8 -6
-27 -10 -42 -9 -19 2 -24 0 -18 -8 6 -8 0 -12 -20 -13 -17 -1 -29 3 -29 10 0
7 -4 6 -10 -3 -9 -13 -10 -13 -10 0 -1 9 -5 5 -10 -8 -10 -22 -39 -27 -66 -10
-15 10 -24 0 -25 -26 0 -20 -1 -20 -9 2 -8 19 -12 21 -29 10 -11 -6 -17 -18
-13 -26 4 -11 2 -13 -9 -7 -19 12 -49 14 -42 2 3 -6 -7 -8 -25 -5 -26 4 -29 2
-22 -12 7 -14 3 -16 -26 -14 -20 2 -32 -1 -29 -6 4 -6 -1 -7 -11 -3 -11 4 -15
3 -10 -5 4 -7 -2 -9 -19 -6 -17 3 -27 -1 -32 -12 -5 -13 -7 -13 -14 -2 -6 9
-9 9 -9 1 0 -6 -8 -10 -19 -8 -15 3 -18 -2 -15 -26 2 -19 0 -28 -7 -23 -6 3
-8 12 -6 18 3 7 -1 13 -9 13 -8 0 -13 -6 -10 -14 7 -17 1 -17 -17 1 -11 12
-15 11 -25 -5 -9 -13 -9 -20 0 -25 7 -5 8 -3 3 6 -6 9 -4 11 5 5 9 -6 11 -4 5
5 -5 9 -4 11 4 6 9 -6 9 -11 0 -22 -12 -15 -54 -20 -45 -5 3 5 -7 8 -23 7 -25
-1 -28 -3 -18 -15 9 -11 9 -13 1 -8 -7 4 -14 0 -18 -8 -3 -8 -11 -15 -17 -15
-8 0 -8 4 1 15 11 13 10 14 -4 9 -15 -6 -20 -18 -17 -37 1 -5 -3 -6 -9 -2 -6
3 -7 12 -3 18 4 7 0 6 -10 -2 -9 -7 -15 -17 -12 -21 3 -5 0 -12 -6 -16 -7 -4
-9 -3 -5 4 3 6 2 13 -4 17 -5 3 -10 -1 -10 -9 0 -8 -5 -18 -12 -22 -7 -4 -8
-3 -4 4 4 7 2 12 -3 12 -6 0 -11 -8 -11 -17 0 -14 -2 -15 -9 -5 -6 11 -10 10
-16 -5 -5 -10 -9 -20 -9 -23 -1 -3 -5 -11 -10 -18 -6 -10 -11 -10 -20 4 -9 11
-18 14 -27 8 -8 -5 -17 -9 -21 -9 -3 0 -10 -4 -15 -9 -5 -5 -3 -6 5 -2 14 8
12 -28 -3 -41 -4 -5 -4 -2 0 6 6 11 4 13 -8 8 -9 -3 -19 -1 -23 5 -5 7 -10 3
-16 -11 -5 -16 -14 -22 -26 -19 -21 6 -26 -18 -9 -42 9 -12 9 -13 -3 -2 -8 6
-18 12 -23 12 -4 0 -5 -6 -1 -12 5 -9 2 -8 -9 1 -15 12 -20 11 -37 -4 -10 -9
-24 -14 -31 -9 -7 4 -10 3 -5 -4 7 -12 -42 -54 -55 -47 -4 3 -6 -4 -4 -15 2
-11 0 -20 -6 -20 -5 0 -9 6 -9 13 0 8 -3 7 -9 -3 -6 -8 -7 -19 -3 -25 3 -5 -3
-3 -13 5 -10 8 -16 10 -12 4 4 -7 0 -14 -8 -17 -8 -4 -12 -15 -10 -26 3 -14
-1 -18 -12 -14 -11 4 -11 8 -3 13 7 4 8 10 4 12 -5 3 -17 -3 -26 -14 -10 -10
-14 -18 -9 -18 5 0 12 -7 15 -16 3 -8 2 -13 -3 -10 -8 5 -23 -17 -25 -36 -1
-5 -4 -8 -8 -8 -41 0 -42 1 -18 15 20 11 21 14 7 15 -11 0 -15 4 -11 12 4 7 3
8 -5 4 -6 -4 -9 -12 -6 -17 4 -5 -1 -9 -9 -9 -13 0 -14 -3 -4 -19 7 -11 16
-17 21 -14 5 3 4 -4 -2 -16 -7 -11 -14 -21 -17 -21 -3 0 -2 5 2 12 5 7 2 9 -8
5 -11 -4 -14 -1 -11 12 3 11 -1 18 -11 18 -8 0 -15 -3 -14 -6 2 -20 -3 -31
-12 -26 -5 3 -10 1 -10 -5 0 -6 -4 -9 -8 -6 -5 3 -9 -1 -9 -9 0 -8 5 -15 10
-15 6 0 7 -3 4 -6 -4 -4 -13 -1 -22 6 -13 11 -14 10 -9 -4 4 -11 1 -16 -11
-16 -10 0 -13 -5 -9 -12 5 -7 2 -9 -9 -5 -11 4 -14 2 -10 -9 3 -8 -1 -14 -11
-14 -9 0 -15 -3 -15 -7 3 -20 -2 -24 -16 -13 -13 11 -14 10 -9 -4 4 -11 1 -16
-12 -16 -12 0 -15 -3 -8 -8 7 -5 5 -14 -9 -27 -11 -11 -17 -15 -14 -9 3 6 0
11 -8 11 -12 0 -12 -4 2 -20 13 -15 14 -18 3 -13 -9 4 -8 2 3 -7 23 -19 22
-27 -4 -27 -13 0 -18 -4 -13 -12 5 -7 3 -8 -6 -3 -10 6 -12 4 -6 -11 4 -10 4
-15 0 -12 -10 11 -45 -12 -38 -24 4 -7 3 -8 -4 -4 -7 4 -12 2 -12 -5 0 -7 -3
-9 -6 -6 -4 4 -2 13 4 20 7 8 8 18 4 22 -4 5 -1 5 7 0 9 -5 12 -4 7 3 -5 8 -1
10 11 5 15 -6 16 -5 3 9 -8 9 -17 12 -18 7 -2 -5 -8 -7 -12 -4 -5 3 -7 -4 -5
-15 2 -12 -2 -23 -9 -26 -8 -3 -12 -14 -9 -25 3 -11 0 -19 -6 -19 -7 0 -10 4
-6 9 3 5 1 12 -3 15 -5 3 -9 -7 -8 -22 1 -22 -3 -27 -21 -26 -15 1 -20 -3 -15
-14 3 -9 1 -13 -5 -9 -7 4 -10 0 -8 -10 1 -10 9 -17 18 -17 9 1 13 -4 10 -12
-3 -8 -9 -12 -13 -9 -5 3 -17 -6 -27 -19 -17 -22 -20 -22 -31 -8 -9 15 -10 14
-7 -5 2 -13 -1 -26 -7 -29 -7 -5 -8 -2 -3 7 5 8 -3 3 -18 -11 -15 -14 -27 -29
-27 -35 0 -5 4 -4 9 3 5 9 8 2 8 -20 1 -27 -1 -29 -7 -13 -7 17 -9 17 -9 3 -1
-12 -6 -15 -18 -11 -16 6 -16 5 -4 -10 12 -15 12 -17 -3 -11 -12 5 -15 2 -10
-10 5 -13 2 -15 -12 -10 -11 4 -16 4 -12 0 4 -5 2 -20 -3 -35 -9 -24 -8 -25 6
-7 8 11 15 15 15 9 0 -20 -25 -33 -40 -20 -10 9 -11 9 -6 0 4 -8 2 -13 -6 -13
-9 0 -9 -3 2 -10 12 -8 12 -10 -5 -11 l-20 0 20 -8 c11 -5 23 -7 27 -4 4 2 5
-4 1 -13 -4 -12 -8 -14 -11 -5 -3 8 -9 6 -18 -8 -10 -13 -21 -18 -32 -14 -15
6 -15 5 -3 -10 12 -15 11 -17 -10 -17 -19 0 -21 -2 -9 -10 14 -9 13 -11 -9
-14 -5 0 -13 -5 -18 -10 -4 -5 -3 -6 3 -3 15 9 27 -20 12 -29 -7 -5 -8 -2 -3
6 5 9 4 11 -3 6 -7 -4 -12 -14 -12 -22 0 -8 -4 -13 -8 -10 -5 3 -9 -1 -9 -9 0
-8 4 -12 9 -9 4 3 8 0 8 -5 0 -6 -7 -11 -16 -11 -9 0 -14 -7 -13 -17 1 -10 -2
-26 -6 -37 -5 -11 -4 -26 3 -36 9 -15 8 -17 -8 -13 -11 3 -17 10 -13 16 3 6 1
7 -6 3 -9 -6 -9 -11 1 -24 7 -9 8 -13 2 -9 -6 3 -20 -1 -30 -9 -10 -9 -14 -13
-7 -9 7 3 17 -4 23 -15 8 -16 8 -20 -2 -18 -7 2 -12 -3 -10 -10 1 -8 -2 -11
-8 -7 -8 5 -7 12 2 22 12 15 11 15 -10 2 -12 -8 -17 -16 -12 -17 8 -3 7 -8 0
-17 -8 -10 -8 -15 1 -21 8 -5 9 -3 4 6 -5 9 -4 11 4 6 6 -4 9 -12 5 -17 -3 -5
-10 -7 -15 -4 -5 4 -9 -1 -9 -9 0 -15 -12 -21 -34 -17 -5 1 -2 -8 6 -21 16
-26 13 -58 -5 -58 -7 0 -6 -4 3 -10 13 -9 13 -10 0 -11 -8 -1 -19 0 -25 1 -5
1 -7 -2 -3 -6 4 -4 3 -13 -3 -20 -6 -7 -6 -14 0 -18 5 -3 7 -15 4 -26 -3 -11
-10 -17 -17 -13 -6 4 -4 -2 4 -12 14 -17 13 -18 -4 -12 -16 6 -17 5 -6 -8 15
-18 0 -20 -19 -2 -11 10 -12 9 -5 -3 13 -23 14 -43 2 -58 -6 -7 -7 -12 -2 -11
21 4 35 -2 29 -11 -4 -6 -10 -8 -15 -5 -4 3 -10 -2 -13 -10 -4 -10 -1 -12 11
-9 9 2 7 -1 -5 -7 -25 -13 -30 -47 -10 -69 10 -12 9 -12 -4 -2 -14 10 -18 10
-22 -2 -4 -9 -1 -18 5 -22 7 -5 8 -2 3 6 -5 8 -4 11 3 7 5 -4 8 -16 5 -27 -3
-11 -9 -17 -14 -14 -5 3 -9 -10 -9 -28 0 -25 -3 -29 -10 -18 -5 8 -10 10 -10
4 0 -5 5 -15 11 -21 7 -7 6 -15 -5 -26 -19 -19 -21 -28 -3 -21 8 3 13 -3 13
-15 0 -14 -4 -17 -12 -10 -9 8 -11 5 -7 -10 3 -12 10 -18 17 -14 6 4 5 0 -2
-9 -10 -13 -10 -17 0 -21 9 -4 7 -6 -4 -6 -9 -1 -20 -6 -24 -13 -5 -7 -3 -8 7
-3 12 8 12 6 0 -8 -7 -9 -10 -17 -5 -17 5 0 0 -7 -10 -15 -11 -8 -16 -15 -10
-15 5 0 14 -12 21 -26 10 -21 9 -26 -3 -31 -11 -4 -12 -9 -3 -19 14 -17 -2
-18 -21 -1 -8 6 -6 2 4 -10 11 -13 14 -23 8 -23 -7 0 -12 -5 -12 -11 0 -5 3
-8 8 -5 4 2 13 -7 20 -22 9 -19 9 -23 0 -14 -18 18 -32 14 -17 -5 10 -11 10
-14 2 -9 -7 4 -13 3 -13 -3 0 -5 6 -12 13 -15 8 -3 6 -9 -7 -20 -16 -13 -17
-16 -4 -16 9 0 18 -7 21 -14 4 -10 1 -13 -8 -10 -15 6 -15 -12 -1 -35 6 -10 5
-12 -2 -7 -7 4 -12 2 -12 -3 0 -6 8 -11 18 -12 14 0 14 -2 -3 -9 -12 -5 -14
-9 -6 -9 11 -1 10 -5 -5 -16 -18 -15 -18 -15 0 -8 15 5 17 3 10 -8 -12 -18
-12 -89 -1 -89 5 0 3 -8 -4 -17 -12 -15 -12 -16 4 -10 9 3 17 2 17 -3 0 -9
-15 -14 -33 -11 -5 1 -6 -3 -2 -9 3 -6 11 -8 16 -5 5 4 9 1 9 -4 0 -6 -6 -11
-12 -11 -10 0 -10 -2 0 -9 7 -4 14 -19 14 -32 1 -13 5 -29 10 -36 5 -6 5 -14
-2 -18 -5 -3 -10 -14 -10 -23 0 -15 2 -15 10 -2 5 8 10 10 10 4 0 -6 -3 -14
-7 -18 -11 -11 -12 -36 -2 -36 6 0 7 -5 3 -12 -4 -6 -1 -16 7 -22 15 -12 22
-49 8 -40 -11 6 -12 -10 -2 -20 11 -11 12 -36 1 -36 -5 0 -2 -7 6 -16 20 -20
21 -30 1 -14 -13 11 -14 10 -9 -4 3 -9 13 -16 22 -16 12 0 13 -3 4 -12 -7 -7
-12 -17 -12 -23 0 -6 3 -5 8 2 5 8 11 4 18 -11 8 -17 8 -23 -2 -23 -7 0 -10 5
-7 10 4 6 1 7 -6 2 -9 -5 -10 -10 -2 -18 6 -6 11 -19 11 -29 0 -10 6 -18 13
-18 8 0 7 -4 -3 -10 -8 -5 -10 -10 -4 -10 7 0 14 -7 17 -14 4 -9 1 -14 -6 -12
-7 1 -9 1 -4 -1 4 -3 5 -9 2 -14 -4 -5 0 -6 8 -3 8 3 18 0 23 -7 4 -7 3 -10
-3 -6 -6 4 -17 0 -24 -9 -7 -8 -8 -14 -3 -13 21 4 35 -2 29 -11 -10 -16 -15
-50 -7 -49 19 3 32 -2 32 -12 0 -5 -6 -7 -12 -3 -7 4 -5 -2 5 -14 19 -20 18
-21 -5 -16 -23 5 -23 5 2 -10 14 -8 24 -17 23 -20 -9 -19 -1 -27 14 -15 15 13
15 12 5 -8 -16 -30 -15 -38 3 -23 23 19 18 3 -7 -21 -13 -12 -17 -19 -10 -15
7 4 12 1 12 -8 0 -9 6 -16 13 -16 8 0 7 -4 -3 -11 -12 -9 -11 -10 6 -6 17 3
21 0 20 -17 -1 -11 -5 -24 -11 -28 -6 -5 -5 -8 3 -8 6 0 13 -10 13 -22 1 -17
2 -19 6 -6 2 10 12 18 21 18 12 0 13 -3 4 -12 -16 -16 -15 -33 1 -22 7 5 4 1
-6 -8 -19 -17 -19 -18 -1 -19 18 0 17 -1 -1 -9 -15 -7 -16 -9 -4 -9 27 -1 45
-30 32 -50 -8 -12 -7 -22 2 -34 6 -9 15 -14 18 -10 4 3 -1 12 -11 20 -11 10
-12 13 -3 11 8 -2 21 -15 30 -28 10 -14 11 -21 3 -16 -6 4 -12 2 -12 -3 0 -6
6 -11 13 -11 8 0 7 -4 -3 -10 -12 -8 -10 -10 10 -10 20 0 22 -2 10 -10 -13 -9
-13 -10 0 -11 8 -1 19 -1 23 0 5 1 6 -3 2 -9 -3 -6 -11 -8 -17 -4 -5 3 -3 -7
6 -24 8 -16 12 -33 8 -37 -4 -4 4 -2 18 5 14 7 22 9 18 5 -4 -4 -3 -17 3 -29
9 -20 9 -20 -4 -3 -9 10 -18 14 -21 9 -2 -4 4 -14 14 -22 10 -8 17 -17 14 -22
-3 -4 2 -8 12 -8 14 0 15 -2 3 -17 -13 -15 -12 -15 7 -5 17 9 25 8 40 -4 11
-9 14 -13 8 -10 -14 7 -29 -25 -16 -33 5 -3 11 -14 15 -24 4 -10 12 -16 19
-12 7 4 5 0 -4 -8 -10 -8 -15 -17 -11 -20 10 -11 25 -8 18 3 -3 6 -1 10 4 10
6 0 11 -6 12 -12 0 -7 4 -4 9 7 8 17 9 16 9 -9 1 -21 -3 -27 -14 -22 -13 5
-14 2 -5 -15 15 -26 40 -35 51 -18 5 8 9 9 9 4 0 -6 -5 -16 -12 -23 -9 -9 -9
-12 1 -12 11 0 11 -3 0 -17 -8 -9 -9 -14 -3 -10 6 3 16 -3 24 -13 8 -10 17
-17 22 -14 4 3 5 -2 2 -10 -4 -11 0 -16 12 -16 16 0 17 -2 4 -10 -13 -9 -13
-10 0 -11 8 -1 18 -1 23 0 4 0 7 -4 7 -10 0 -5 4 -7 10 -4 6 3 7 -1 4 -10 -5
-13 -9 -13 -23 -3 -13 10 -13 9 2 -8 9 -11 16 -23 15 -25 -2 -3 7 7 20 21 16
18 21 20 16 6 -4 -11 -1 -22 7 -28 11 -8 11 -9 -3 -5 -21 7 -32 -19 -12 -27 9
-3 12 -1 9 4 -3 6 0 10 9 10 8 0 16 5 18 10 2 6 9 1 15 -9 11 -17 10 -19 -6
-16 -13 2 -18 -2 -16 -13 1 -10 9 -16 21 -14 15 3 16 1 6 -11 -10 -12 -8 -18
13 -31 15 -10 23 -22 18 -29 -5 -9 -3 -9 9 0 18 15 32 5 18 -13 -8 -9 -6 -12
7 -10 10 0 22 6 26 11 5 6 7 4 4 -5 -2 -8 -11 -14 -18 -12 -9 1 -8 -3 3 -11
10 -8 14 -18 10 -23 -4 -4 0 -3 9 4 14 11 16 9 15 -10 -1 -16 4 -22 16 -20 9
1 19 -2 23 -7 3 -6 13 -8 23 -5 14 5 14 4 2 -4 -9 -7 -19 -7 -25 -2 -8 7 -12
5 -12 -5 0 -8 3 -12 7 -10 4 3 15 -4 25 -15 10 -11 23 -20 29 -20 6 0 4 5 -4
10 -8 5 -10 10 -4 10 6 0 16 -6 22 -12 10 -13 12 -19 12 -38 0 -5 9 -10 20
-10 11 0 20 -6 20 -14 0 -8 9 -21 20 -29 11 -8 17 -17 13 -20 -3 -4 3 -7 14
-7 17 0 20 5 16 23 -5 22 -5 22 11 2 10 -11 14 -13 10 -5 -5 12 -4 12 6 3 10
-9 10 -15 -4 -28 -18 -18 -22 -40 -5 -30 6 4 19 -2 30 -13 11 -13 27 -19 40
-17 20 4 21 3 4 -15 -18 -19 -4 -23 24 -6 10 6 12 5 7 -2 -4 -7 -2 -12 3 -12
6 0 11 -5 11 -11 0 -5 -5 -7 -12 -3 -7 4 -8 3 -4 -5 6 -9 13 -9 30 3 37 23 56
-3 32 -43 -6 -9 -5 -12 2 -7 6 3 13 2 17 -3 3 -5 14 -8 25 -6 11 2 23 -1 26
-7 4 -7 2 -8 -4 -4 -7 4 -12 2 -12 -5 0 -6 8 -9 19 -6 14 3 18 1 14 -9 -4 -10
3 -14 22 -14 18 0 24 -4 19 -12 -5 -9 -2 -9 9 1 20 16 23 1 4 -18 -10 -10 -9
-11 6 -5 14 5 16 2 11 -12 -5 -16 -4 -16 5 -4 6 8 11 11 11 5 0 -5 6 -3 13 5
14 17 42 26 32 10 -3 -6 1 -17 9 -26 9 -9 13 -20 10 -26 -4 -7 2 -7 17 -3 21
7 22 6 10 -9 -8 -9 -11 -19 -7 -23 3 -3 6 -1 6 7 0 10 4 10 17 -1 15 -12 16
-12 10 3 -4 12 -2 15 9 11 8 -3 13 -11 10 -19 -6 -15 17 -37 28 -27 4 4 11 1
16 -7 6 -9 10 -10 10 -3 0 6 -4 15 -10 18 -5 3 -10 11 -10 17 0 6 8 1 19 -10
10 -12 22 -18 27 -14 4 4 2 -2 -6 -12 -10 -13 -10 -17 -2 -12 7 4 12 2 12 -6
0 -9 3 -9 10 2 8 12 10 10 11 -10 1 -21 2 -22 6 -5 3 11 9 25 15 30 6 6 7 3 2
-9 -5 -13 -4 -17 4 -12 7 4 12 3 12 -3 0 -5 -6 -12 -12 -14 -8 -3 -5 -6 5 -6
11 -1 15 -6 11 -12 -4 -8 0 -8 15 0 19 11 25 8 23 -10 -1 -4 8 -5 18 -2 12 3
20 0 20 -7 0 -8 10 -11 29 -8 21 3 28 0 27 -11 -1 -10 6 -15 18 -13 12 2 16
-1 10 -9 -4 -7 -3 -10 4 -5 5 3 12 3 15 -1 2 -5 2 -2 1 5 -2 6 1 12 6 12 6 0
10 -4 10 -10 0 -5 5 -10 11 -10 5 0 7 4 4 10 -4 6 1 7 11 3 15 -6 15 -7 -2
-20 -18 -14 -18 -14 1 -11 11 2 19 -2 18 -8 -1 -6 4 -11 12 -11 7 0 11 5 9 12
-3 6 4 11 15 11 16 0 17 -3 9 -14 -6 -7 -7 -12 -2 -11 23 4 35 -2 28 -13 -5
-9 -2 -9 9 1 15 12 17 11 17 -3 0 -10 5 -14 10 -11 6 4 18 1 27 -7 10 -8 14
-8 10 -1 -4 6 -3 14 3 18 9 5 14 -7 12 -26 -1 -4 8 -4 20 -1 16 4 19 2 13 -9
-8 -12 -6 -12 8 0 9 7 17 9 17 4 0 -5 7 -10 15 -10 8 0 12 4 10 8 -3 4 6 6 20
5 14 0 25 -4 25 -8 0 -4 9 -16 21 -26 17 -17 26 -18 54 -9 20 6 32 15 28 21
-3 6 7 -1 21 -17 22 -22 31 -25 46 -17 18 10 24 7 22 -12 -1 -3 5 -9 14 -12 8
-3 13 -2 10 3 -13 20 25 19 39 -2 8 -12 15 -16 15 -9 0 6 9 12 20 12 11 0 20
-4 20 -10 0 -5 10 -10 23 -10 13 0 29 -6 37 -13 12 -10 12 -9 2 4 -11 14 -9
16 13 11 14 -2 23 -8 20 -12 -3 -5 4 -6 16 -3 12 4 25 0 30 -8 7 -11 9 -11 9
-1 0 8 5 10 12 6 7 -5 9 -2 5 9 -4 11 -2 14 8 10 8 -3 12 -9 9 -14 -3 -5 -1
-9 5 -9 5 0 12 6 14 13 4 9 6 9 6 0 1 -7 6 -13 12 -13 5 0 8 4 5 9 -7 11 21 8
31 -4 4 -4 2 -5 -6 0 -10 5 -12 4 -7 -3 5 -8 13 -9 25 -2 10 5 22 6 26 2 5 -4
5 -2 2 4 -3 6 0 11 8 11 8 0 12 -4 9 -9 -3 -4 0 -8 6 -8 6 0 8 -5 4 -12 -4 -7
-3 -8 5 -4 6 4 9 12 6 17 -3 5 1 6 9 3 9 -3 13 -11 9 -18 -3 -6 4 -2 17 9 13
11 20 14 16 8 -5 -9 0 -13 14 -13 12 0 18 4 15 10 -3 6 1 7 9 4 9 -3 13 -11 9
-18 -3 -6 4 -2 17 9 13 11 20 14 16 8 -5 -9 0 -13 14 -13 12 0 18 4 15 10 -3
6 1 7 10 4 8 -4 23 0 32 7 12 10 15 10 9 2 -4 -7 -3 -13 3 -13 5 0 12 6 14 13
4 9 6 8 6 -2 1 -11 4 -11 16 -1 12 10 15 10 15 -1 0 -12 2 -12 9 -1 6 11 10
10 15 -3 5 -14 9 -15 21 -5 8 7 15 9 15 5 0 -4 8 -1 17 6 11 10 14 10 9 1 -11
-18 5 -14 20 6 11 13 13 13 9 1 -4 -11 1 -15 20 -15 15 0 24 5 21 11 -2 7 2
12 10 12 7 0 11 -4 9 -8 -3 -4 2 -9 10 -12 10 -4 12 -1 8 10 -5 13 -3 14 17 3
12 -7 20 -8 16 -2 -3 5 1 13 10 16 8 3 13 2 10 -2 -3 -5 1 -9 9 -9 8 0 12 4
10 8 -3 3 3 13 12 20 9 8 14 9 10 3 -4 -7 0 -15 9 -18 8 -3 13 -2 10 3 -4 5
12 7 34 5 23 -2 39 0 36 4 -3 5 1 9 9 9 8 0 12 -4 9 -8 -2 -4 1 -11 8 -15 7
-4 10 -4 6 1 -4 4 0 14 10 22 10 9 11 12 2 7 -8 -4 -6 2 5 13 17 16 22 17 33
6 19 -18 32 -16 26 5 -5 16 -5 16 6 0 11 -17 36 -27 26 -10 -3 4 8 7 24 6 23
-2 27 1 22 15 -5 14 -3 14 10 3 13 -10 18 -10 24 -1 4 7 3 9 -3 6 -6 -4 -13 0
-16 8 -5 11 -1 12 16 5 12 -4 21 -13 19 -19 -1 -8 3 -9 15 -3 10 5 26 8 35 7
10 -2 17 0 17 3 -1 4 -1 14 0 22 1 13 2 13 11 0 9 -14 11 -13 14 11 1 14 56
22 56 8 0 -6 -5 -7 -12 -3 -7 5 -8 3 -3 -6 6 -10 11 -9 22 5 7 11 13 13 13 7
0 -7 5 -12 10 -12 7 0 7 6 0 20 -7 14 -7 20 0 20 5 0 10 -4 10 -10 0 -5 5 -10
11 -10 6 0 9 6 6 13 -4 10 2 13 19 9 13 -2 32 -1 41 3 10 5 21 8 25 7 4 -1 5
4 2 11 -3 8 2 14 10 14 8 0 13 -4 10 -8 -2 -4 0 -11 6 -14 6 -4 9 -1 8 7 -2 7
5 12 14 12 11 -1 15 5 13 17 -3 12 1 16 11 12 8 -3 14 0 14 7 0 7 6 6 16 -4
19 -20 25 -20 18 -1 -4 8 -2 15 4 15 6 0 12 -6 15 -12 3 -7 4 -3 4 8 -1 15 -6
20 -17 16 -16 -6 -15 -4 13 18 15 11 18 11 15 0 -2 -8 5 -14 17 -15 11 0 26
-4 34 -9 9 -6 9 -2 -3 15 -15 24 -6 63 11 46 4 -5 1 -12 -6 -16 -9 -6 -10 -11
-2 -15 6 -4 11 -2 11 4 0 6 5 8 12 4 6 -4 8 -3 5 2 -3 6 7 9 24 8 16 -1 31 2
34 6 3 5 -4 7 -15 5 -14 -3 -20 1 -20 16 0 10 5 19 11 19 5 0 8 -4 4 -9 -3 -6
3 -9 12 -9 10 1 29 -2 43 -5 14 -4 19 -4 12 -1 -6 3 -9 11 -6 16 4 6 2 8 -4 4
-13 -8 -10 20 4 34 7 7 17 3 32 -10 18 -17 22 -18 22 -5 0 8 5 14 11 12 6 -1
13 4 15 11 1 7 0 8 -3 2 -6 -12 -23 -4 -23 11 0 6 5 7 10 4 6 -3 10 0 10 7 0
10 2 10 9 -1 5 -8 16 -11 25 -8 9 4 16 1 16 -5 0 -6 3 -9 6 -6 3 4 0 17 -6 30
-10 19 -10 21 0 11 11 -10 16 -9 27 5 14 16 14 16 8 -3 -5 -16 -4 -17 6 -8 9
9 9 16 2 25 -8 9 -7 17 3 26 8 7 14 9 14 4 0 -4 11 -8 25 -8 17 0 24 5 22 15
-1 10 7 15 28 16 18 0 29 6 28 13 -2 7 6 12 16 12 11 0 28 11 39 25 11 13 22
21 26 18 12 -12 6 13 -6 27 -7 8 -2 6 11 -5 l24 -20 -13 25 c-13 25 -13 25 7
7 19 -17 21 -17 44 3 l24 21 -27 -17 c-26 -15 -28 -15 -28 0 0 27 4 31 28 29
12 -1 20 2 17 7 -3 6 0 7 8 4 18 -6 50 24 41 38 -5 7 0 9 14 6 16 -4 19 -2 15
10 -4 10 -2 13 5 8 7 -4 12 -2 12 3 0 6 -6 11 -12 11 -7 0 -5 5 5 11 10 6 26
9 36 6 12 -3 17 2 19 17 1 17 -1 18 -8 6 -5 -8 -10 -10 -10 -4 0 16 10 23 25
17 8 -2 11 -12 8 -21 -4 -14 -3 -15 6 -2 7 11 5 20 -7 34 -16 18 -16 18 5 7
12 -6 24 -11 27 -11 8 0 3 31 -8 50 -4 8 1 5 13 -8 19 -22 20 -22 26 -2 4 11
11 17 17 14 7 -4 8 -2 4 4 -4 7 -3 12 2 12 11 0 52 35 52 45 0 4 -6 2 -13 -4
-8 -6 -18 -7 -22 -3 -5 4 -5 2 -1 -5 3 -6 3 -14 -2 -17 -4 -2 -8 6 -8 18 0 17
5 22 18 18 20 -5 25 14 6 21 -7 2 -1 5 15 6 57 3 57 3 46 24 -6 10 -8 21 -5
25 3 3 6 0 6 -6 0 -15 27 -15 36 0 4 7 3 8 -4 4 -7 -4 -12 -1 -12 8 0 10 6 13
15 10 11 -5 13 -2 9 10 -5 12 0 16 17 16 19 0 21 2 9 10 -13 8 -12 10 3 10 10
0 20 7 23 15 4 8 11 12 18 8 6 -4 5 1 -3 10 -12 15 -12 17 2 11 13 -5 15 0 11
22 -3 15 -7 31 -10 36 -3 4 2 5 10 2 9 -3 14 -9 12 -13 -3 -4 0 -13 6 -21 8
-12 9 -12 4 3 -4 11 -1 17 7 15 7 -2 12 1 12 7 0 5 -3 9 -7 8 -5 -2 -8 2 -8 7
0 6 9 10 19 10 11 0 23 5 27 12 5 7 2 9 -9 5 -11 -4 -14 -2 -11 8 3 8 13 11
21 8 11 -4 14 -2 9 5 -6 11 5 16 25 14 4 -1 5 7 2 18 -3 11 -9 17 -14 14 -5
-3 -6 3 -2 12 5 13 3 15 -7 9 -9 -5 -11 -4 -6 4 6 9 11 9 22 0 13 -10 18 -6
16 13 -1 3 6 12 15 20 12 9 15 9 9 1 -4 -7 -2 -13 3 -13 6 0 11 7 11 16 0 8 5
12 10 9 6 -3 10 1 10 9 0 9 -4 16 -10 16 -5 0 -6 7 -3 17 5 12 3 14 -8 8 -8
-5 -11 -4 -6 0 10 12 38 15 31 4 -3 -5 0 -9 6 -9 6 0 8 -5 4 -12 -4 -6 -3 -8
4 -4 6 3 9 15 7 26 -2 12 4 24 14 30 10 5 21 19 24 30 3 11 2 18 -2 16 -4 -3
-8 4 -8 15 -2 17 0 18 13 4 20 -20 23 -19 17 5 -3 12 0 20 6 20 7 0 9 -5 5
-12 -4 -7 -3 -8 4 -4 9 5 7 14 -4 32 -11 16 -12 24 -5 24 7 0 9 4 6 10 -7 12
27 0 36 -12 3 -5 6 5 6 22 0 16 -4 30 -8 30 -4 0 -9 7 -13 15 -4 12 -2 13 12
7 25 -13 41 -4 34 20 -3 14 -1 19 6 14 18 -11 14 0 -5 15 -9 8 -14 9 -10 3 4
-7 -1 -18 -11 -25 -15 -12 -16 -12 -5 2 7 9 10 18 7 22 -3 3 4 11 16 17 13 7
20 8 16 2 -3 -6 -2 -14 4 -17 6 -4 9 -3 8 2 -1 4 3 18 10 30 11 20 10 21 -8
18 -11 -2 -20 0 -20 6 0 9 28 13 60 10 9 -1 11 1 5 6 -15 11 -12 39 4 35 7 -1
9 2 6 8 -4 6 -14 9 -24 6 -12 -5 -12 -3 3 9 10 8 23 12 29 8 6 -3 7 -1 3 5 -4
6 -14 9 -24 6 -9 -4 -3 3 13 15 25 18 27 21 10 21 -18 0 -17 2 5 13 14 8 24
19 22 27 -2 7 5 21 14 31 15 16 15 19 1 24 -8 4 -14 13 -13 21 3 18 12 22 23
10 5 -5 2 -6 -6 -1 -10 5 -12 4 -7 -4 11 -17 25 -4 19 18 -3 10 2 21 10 24 15
6 17 42 2 42 -6 0 -9 -4 -7 -8 1 -5 -2 -5 -8 -2 -16 10 20 47 38 40 12 -4 12
-3 3 9 -9 11 -9 15 1 19 10 4 10 8 -2 16 -12 9 -11 11 10 12 15 1 19 3 9 6
-12 3 -15 11 -11 25 3 12 1 19 -4 15 -5 -3 -10 3 -10 13 0 10 3 17 7 14 4 -2
10 2 13 8 3 7 3 3 0 -10 -3 -13 -1 -22 6 -22 6 0 8 5 5 10 -3 6 -2 10 4 10 6
0 7 7 4 17 -4 11 -3 14 5 9 19 -11 14 5 -5 20 -15 12 -15 13 -2 8 22 -7 32 21
14 39 -11 12 -13 22 -6 56 1 2 8 -2 17 -9 8 -8 14 -9 13 -4 -4 23 2 45 11 39
6 -3 7 1 3 10 -4 12 -8 13 -13 5 -5 -8 -10 -9 -14 -2 -3 6 2 13 13 17 22 7 23
44 1 63 -13 12 -12 13 5 7 11 -3 16 -3 12 1 -4 4 -2 13 4 21 6 7 8 13 5 13 -4
0 -2 9 4 19 5 11 6 22 1 25 -14 9 -5 53 21 101 10 18 9 19 -5 6 -20 -16 -23
-1 -4 18 10 11 9 13 -3 7 -8 -4 -6 0 5 10 17 14 17 16 3 11 -10 -4 -18 -2 -18
3 0 6 8 10 18 10 14 0 15 2 2 10 -13 9 -13 11 0 20 13 8 12 10 -5 11 -11 0
-14 3 -8 6 10 3 10 10 2 25 -10 18 -9 20 7 14 18 -6 18 -5 2 8 -19 14 -24 27
-10 25 19 -3 23 2 12 16 -9 11 -10 19 -1 28 8 10 7 17 -2 27 -6 7 -7 10 -1 7
7 -4 11 10 11 43 -1 28 -5 50 -11 50 -6 0 -5 4 3 9 16 10 6 32 -12 27 -7 -1
-9 -1 -4 1 13 8 8 35 -5 28 -7 -4 -5 0 5 8 18 15 24 32 7 22 -5 -3 -10 -1 -10
4 0 6 8 11 18 11 14 0 15 2 2 10 -13 9 -13 11 0 20 13 8 12 10 -5 11 -11 0
-14 3 -8 6 9 3 10 10 3 23 -7 13 -6 20 3 23 9 4 9 6 0 6 -7 1 -13 6 -13 12 0
5 4 8 9 4 5 -3 13 0 17 6 4 8 3 9 -4 5 -7 -4 -12 -2 -12 4 0 6 -6 8 -12 5 -7
-4 -4 1 6 9 20 16 20 16 0 16 -16 0 -17 2 -4 10 8 5 10 10 4 10 -17 0 -25 28
-12 36 7 4 8 3 4 -4 -4 -7 -2 -12 3 -12 14 0 14 17 0 26 -6 3 -9 17 -6 30 2
14 1 26 -3 29 -4 2 -6 23 -5 45 1 27 -2 39 -9 37 -7 -3 -11 9 -10 34 0 21 -3
36 -8 33 -4 -3 -5 -11 -1 -17 4 -7 0 -6 -10 2 -18 15 -23 26 -7 16 6 -3 10 1
10 10 0 9 -4 14 -8 11 -5 -3 -9 1 -9 9 0 8 4 12 9 9 12 -8 10 10 -4 24 -7 7
-9 12 -5 12 4 0 2 10 -4 23 -11 19 -10 20 3 10 12 -10 15 -10 15 2 0 8 -4 12
-8 9 -5 -3 -16 4 -26 15 -9 11 -21 18 -27 15 -6 -3 -1 3 10 13 20 18 20 21 5
31 -14 10 -13 11 4 5 19 -6 19 -5 -1 18 -12 13 -19 30 -16 38 3 9 0 11 -9 6
-8 -5 -11 -5 -7 0 4 4 3 14 -4 22 -8 11 -7 12 6 7 9 -3 16 -1 16 5 0 6 -4 11
-10 11 -5 0 -10 9 -10 21 0 11 -4 17 -10 14 -6 -3 -7 1 -4 9 4 11 0 16 -12 17
-11 0 -14 3 -6 6 6 2 12 14 12 24 0 12 -4 17 -11 13 -8 -4 -9 1 -4 17 3 13 3
20 -2 14 -4 -5 -15 -11 -23 -13 -8 -2 -12 0 -8 4 4 4 0 13 -10 21 -16 12 -16
13 1 7 14 -5 17 0 17 25 0 19 -6 34 -15 37 -8 4 -12 10 -9 15 8 13 -10 11 -25
-3 -11 -11 -12 -10 -6 0 4 7 17 17 29 22 18 7 18 9 3 9 -14 1 -17 6 -12 24 5
17 4 19 -4 7 -9 -13 -12 -13 -23 -1 -7 8 -8 11 -2 8 6 -3 11 0 11 8 0 11 -5
12 -21 3 -18 -10 -19 -9 -9 4 7 8 9 19 5 23 -4 5 -2 5 5 1 6 -3 15 -1 19 5 4
8 3 9 -4 5 -11 -6 -16 5 -14 26 1 3 -5 9 -14 12 -12 4 -12 2 -4 -14 7 -14 7
-20 0 -20 -5 0 -10 6 -10 14 0 8 -6 17 -12 19 -10 4 -10 6 0 6 15 1 16 27 0
37 -7 5 -8 3 -3 -6 5 -8 4 -11 -2 -7 -6 4 -9 18 -8 32 2 14 -2 28 -7 32 -7 4
-8 1 -3 -8 8 -12 6 -12 -8 0 -9 7 -14 18 -10 24 4 7 0 8 -12 3 -18 -7 -18 -6
-1 13 17 19 17 21 2 27 -9 3 -13 11 -9 17 3 6 1 7 -6 3 -7 -5 -20 3 -32 19
-17 20 -24 23 -35 14 -20 -17 -17 -6 6 21 21 25 17 45 -7 35 -14 -5 -14 -3 -2
11 12 15 12 16 -7 10 -14 -4 -21 -2 -21 8 0 9 4 13 9 10 4 -3 8 2 8 11 0 9 -3
14 -7 12 -5 -3 -14 1 -21 9 -10 11 -10 14 0 14 8 0 6 5 -5 11 -9 5 -22 7 -29
3 -6 -4 -8 -3 -5 3 4 6 0 13 -8 17 -8 3 -12 12 -9 21 3 8 9 13 13 10 4 -2 8 2
8 10 0 8 -4 12 -8 9 -4 -2 -16 7 -27 21 -20 25 -40 35 -26 13 4 -7 3 -8 -5 -4
-9 6 -9 11 -1 21 8 9 6 14 -5 19 -9 3 -13 11 -9 17 4 8 3 9 -4 5 -11 -6 -16 5
-13 26 0 4 -7 4 -16 1 -12 -5 -14 -3 -8 7 5 9 4 11 -3 6 -8 -5 -12 2 -12 21
-1 25 -2 26 -11 10 -8 -14 -7 -23 7 -38 16 -17 16 -19 1 -19 -10 0 -16 6 -15
13 2 6 -3 11 -10 9 -8 -1 -11 2 -6 9 5 8 2 10 -8 6 -12 -4 -15 1 -14 18 1 21
3 22 16 10 14 -12 16 -12 16 5 0 10 -2 17 -4 15 -3 -2 -11 3 -19 11 -8 8 -19
11 -25 8 -6 -4 -5 2 1 15 10 17 9 21 -4 21 -10 0 -14 -5 -10 -12 4 -7 0 -4 -9
6 -8 10 -13 23 -9 29 3 5 -3 6 -17 2 -14 -5 -20 -3 -16 3 3 6 0 13 -6 16 -7 3
-2 4 12 1 14 -3 19 -2 12 1 -6 3 -10 9 -8 13 3 4 -11 6 -30 6 -19 -1 -34 3
-34 8 0 5 9 7 20 4 11 -3 18 -1 14 4 -3 5 -14 9 -25 9 -10 0 -19 7 -19 15 0 8
-4 15 -10 15 -5 0 -10 5 -10 11 0 5 6 7 13 3 8 -5 8 -2 -2 9 -15 18 -26 23
-16 7 3 -5 0 -10 -8 -10 -10 0 -14 7 -10 23 4 17 3 19 -6 7 -9 -13 -12 -13
-23 -1 -9 10 -10 12 -1 7 9 -5 11 -2 7 9 -5 13 -9 13 -23 3 -9 -7 -13 -8 -9
-4 5 5 -1 15 -12 23 -11 8 -20 19 -20 25 0 7 7 3 16 -8 15 -19 15 -19 5 1 -5
12 -21 27 -35 34 -14 8 -23 18 -20 22 3 5 -2 6 -10 3 -9 -3 -16 -1 -16 6 0 6
-4 8 -10 5 -10 -6 -14 7 -10 35 1 10 -3 9 -13 -5 -14 -18 -13 -21 6 -35 28
-19 35 -45 10 -31 -27 14 -55 51 -40 51 8 0 7 4 -3 11 -13 9 -12 10 3 5 11 -4
16 -2 11 5 -3 6 -15 8 -26 6 -14 -4 -18 -1 -14 8 3 8 -4 24 -15 37 -11 13 -18
17 -14 11 9 -19 -10 -16 -26 4 -12 14 -12 16 0 8 10 -5 12 -4 7 4 -4 6 -11 9
-16 6 -4 -3 -10 -2 -13 2 -2 5 -2 3 -1 -4 2 -6 -3 -16 -10 -23 -10 -8 -15 -6
-20 7 -8 20 -5 29 7 25 5 -1 6 2 3 7 -4 5 -1 11 6 13 7 3 5 7 -6 11 -10 4 -15
3 -11 -3 3 -6 -3 -10 -14 -10 -11 0 -23 4 -26 10 -3 6 1 7 12 4 11 -3 10 0 -5
8 -18 11 -20 16 -10 27 11 11 11 13 0 7 -17 -10 -54 3 -46 16 4 6 2 8 -4 4
-11 -7 -8 -44 4 -55 4 -3 4 2 1 12 -6 17 3 23 16 10 10 -10 -13 -32 -27 -27
-8 3 -12 19 -11 39 1 19 -1 33 -3 30 -3 -3 -11 3 -19 13 -12 15 -13 14 -2 -8
11 -23 11 -24 -4 -11 -10 7 -17 20 -17 28 0 12 -3 12 -16 -2 -15 -14 -19 -13
-50 20 -19 21 -31 42 -27 48 4 7 -1 6 -10 -2 -13 -10 -17 -10 -17 -1 0 10 -3
10 -15 0 -8 -7 -16 -9 -16 -4 -1 5 -2 16 -3 24 0 8 -8 15 -16 15 -8 1 -14 7
-12 14 1 7 -2 10 -7 6 -6 -3 -9 -11 -7 -18 1 -7 1 -9 -1 -4 -3 4 -8 5 -13 2
-4 -3 -11 2 -14 11 -4 10 -2 13 6 8 7 -4 8 -3 4 4 -4 7 -14 12 -22 12 -8 0
-13 -4 -9 -9 3 -5 0 -13 -6 -17 -7 -4 -9 -3 -6 3 4 6 -1 17 -10 24 -15 12 -16
12 -9 -6 6 -16 5 -17 -5 -8 -10 10 -9 16 2 29 10 13 10 16 1 10 -23 -14 -62 2
-56 22 5 15 4 15 -6 2 -9 -11 -13 -12 -17 -2 -2 6 -11 12 -19 12 -9 0 -12 5
-8 13 4 6 4 9 -1 5 -4 -4 -15 -2 -23 5 -13 9 -14 9 -8 0 4 -7 3 -13 -3 -13 -6
0 -7 -8 -4 -17 6 -16 5 -16 -10 -4 -13 11 -14 17 -5 35 10 19 10 20 -5 7 -15
-12 -17 -11 -17 2 0 11 -5 14 -17 10 -12 -5 -14 -3 -8 8 6 11 5 12 -6 2 -14
-14 -43 -18 -36 -5 8 12 -16 27 -45 28 -52 2 -59 4 -54 12 2 4 -4 14 -16 21
-15 9 -18 9 -13 0 6 -9 1 -10 -18 -5 -22 5 -25 4 -20 -11 7 -17 6 -17 -11 -1
-18 18 -13 44 6 32 7 -5 8 -2 3 5 -5 9 -10 10 -18 2 -14 -14 -30 -14 -21 0 5
8 1 8 -14 0 -17 -9 -23 -8 -31 6 -6 10 -11 13 -11 7 0 -7 -7 -14 -15 -18 -8
-3 -14 -2 -14 2 4 26 -4 32 -37 30 -26 -2 -39 3 -46 15 -8 15 -12 16 -25 5
-18 -15 -45 -20 -37 -7 3 5 0 9 -5 9 -6 0 -11 -5 -11 -12 0 -6 -3 -8 -6 -5 -4
4 -2 13 4 20 9 10 8 14 -3 14 -8 0 -15 -4 -15 -8 0 -4 -9 -7 -19 -6 -11 0 -17
5 -15 9 5 8 -16 12 -48 9 -10 -1 -18 3 -18 8 0 6 -5 11 -11 11 -5 0 -8 -4 -4
-10 3 -5 -7 -8 -25 -7 -18 1 -28 7 -26 13 3 8 -3 10 -16 6 -16 -4 -19 -2 -14
9 4 8 0 5 -8 -5 -9 -11 -16 -16 -16 -10 0 5 -34 9 -77 9 -56 -1 -83 3 -96 14
-10 9 -18 11 -17 6 5 -25 -2 -28 -16 -5 l-15 25 5 -24 5 -23 -26 23 c-15 13
-23 19 -20 13 4 -7 -3 -14 -19 -17 -18 -3 -24 -1 -20 9 3 8 3 14 0 14 -2 0 -9
-10 -14 -22 -5 -14 -9 -17 -9 -8 -1 19 -41 21 -41 3 0 -7 -5 -13 -11 -13 -5 0
-8 4 -5 8 2 4 1 14 -5 22 -7 12 -9 11 -9 -5 0 -15 -2 -17 -9 -6 -7 11 -9 11
-14 0 -4 -11 -6 -11 -6 0 -1 11 -4 10 -14 -4 -11 -14 -16 -15 -22 -5 -5 9 -4
11 3 6 8 -5 10 -2 6 8 -7 18 -14 21 -14 5z m-625 -109 c3 -5 1 -10 -4 -10 -6
0 -11 5 -11 10 0 6 2 10 4 10 3 0 8 -4 11 -10z m1820 -110 c3 -5 1 -10 -4 -10
-6 0 -11 5 -11 10 0 6 2 10 4 10 3 0 8 -4 11 -10z m-2761 -339 c-16 -16 -31
-27 -34 -24 -5 4 49 53 59 53 2 0 -9 -13 -25 -29z m-51 -48 c-4 -11 -3 -14 5
-9 18 11 14 1 -7 -18 -14 -13 -21 -14 -27 -5 -4 7 -3 10 4 5 6 -3 13 -2 16 3
4 5 2 12 -4 16 -11 7 -4 25 10 25 5 0 6 -7 3 -17z m3550 -18 c4 -8 3 -16 -1
-19 -4 -3 -9 4 -9 15 -2 23 3 25 10 4z m142 -115 c3 -5 1 -10 -4 -10 -6 0 -11
5 -11 10 0 6 2 10 4 10 3 0 8 -4 11 -10z m399 -439 c-5 -5 -33 30 -34 43 0 4
9 -2 19 -15 11 -13 17 -26 15 -28z m47 -52 c16 -8 18 -13 8 -25 -16 -19 -28
-18 -25 4 2 9 -2 20 -8 24 -17 12 3 9 25 -3z m223 -384 c-4 -8 -11 -12 -16 -9
-6 4 -5 10 3 15 19 12 19 11 13 -6z m-5384 -345 c0 -5 -4 -10 -10 -10 -5 0
-10 5 -10 10 0 6 5 10 10 10 6 0 10 -4 10 -10z m5693 -566 c-7 -19 -10 -18
-16 5 -3 13 -1 18 9 14 7 -2 10 -11 7 -19z m-5863 -508 c0 -3 -4 -8 -10 -11
-5 -3 -10 -1 -10 4 0 6 5 11 10 11 6 0 10 -2 10 -4z m-4 -52 c1 -9 0 -13 -4
-10 -3 4 -7 14 -8 22 -1 9 0 13 4 10 3 -4 7 -14 8 -22z m5874 -318 c0 -2 -7
-7 -16 -10 -8 -3 -12 -2 -9 4 6 10 25 14 25 6z m-15 -65 c3 -5 2 -12 -3 -15
-5 -3 -9 1 -9 9 0 17 3 19 12 6z m-216 -702 c-22 -13 -31 -11 -17 5 7 8 17 12
22 9 4 -3 2 -9 -5 -14z m-5072 -513 c0 -12 -12 -13 -37 -6 -3 1 4 5 15 10 11
5 20 9 21 9 0 1 1 -5 1 -13z m178 -246 c3 -6 -1 -7 -9 -4 -18 7 -21 14 -7 14
6 0 13 -4 16 -10z m4369 -28 c3 -5 -1 -9 -9 -9 -8 0 -12 4 -9 9 3 4 7 8 9 8 2
0 6 -4 9 -8z m-4283 -85 c-10 -9 -11 -8 -5 6 3 10 9 15 12 12 3 -3 0 -11 -7
-18z m4185 -29 c-14 -20 -19 -17 -15 10 1 4 5 6 10 5 5 -2 9 5 10 15 0 10 3
12 6 5 2 -7 -3 -23 -11 -35z m-42 -34 c3 -8 2 -12 -4 -9 -6 3 -10 10 -10 16 0
14 7 11 14 -7z m-3876 -153 c-6 -2 -5 -7 3 -12 7 -4 11 -10 8 -13 -3 -3 -16 6
-30 21 -13 14 -18 23 -11 19 6 -4 12 -2 12 4 0 7 5 6 14 -2 8 -8 10 -15 4 -17z
m3581 -107 c-6 -8 -17 -14 -23 -14 -6 0 -3 5 7 11 9 6 14 15 11 21 -4 7 -2 8
5 4 9 -6 9 -11 0 -22z m-3429 -20 c0 -8 -5 -12 -10 -9 -6 4 -8 11 -5 16 9 14
15 11 15 -7z m3377 -2 c0 -10 -6 -19 -13 -19 -6 0 -9 9 -6 19 6 23 21 23 19 0z
m-2906 -259 c12 -16 12 -17 -2 -6 -9 7 -19 10 -22 6 -4 -3 -7 -1 -7 5 0 17 16
15 31 -5z m2043 -161 c2 -4 -5 -9 -17 -9 -17 -2 -19 0 -7 7 18 12 18 12 24 2z
m-1507 -31 c8 7 13 8 13 1 0 -18 -28 -21 -41 -4 -11 14 -11 15 1 5 10 -9 17
-10 27 -2z m533 -72 c0 -5 -4 -9 -8 -9 -5 0 -9 7 -9 15 0 8 4 12 9 9 4 -3 8
-9 8 -15z"/>
<path d="M3210 6035 c0 -8 4 -15 10 -15 5 0 7 7 4 15 -4 8 -8 15 -10 15 -2 0
-4 -7 -4 -15z"/>
<path d="M3270 6029 c0 -5 5 -7 10 -4 6 3 10 8 10 11 0 2 -4 4 -10 4 -5 0 -10
-5 -10 -11z"/>
<path d="M3706 5958 c3 -5 10 -6 15 -3 13 9 11 12 -6 12 -8 0 -12 -4 -9 -9z"/>
<path d="M4278 5763 c7 -3 16 -2 19 1 4 3 -2 6 -13 5 -11 0 -14 -3 -6 -6z"/>
<path d="M1571 5664 c-1 -6 7 -18 17 -25 9 -7 14 -9 10 -5 -4 5 -2 16 5 25 10
14 10 14 -5 3 -13 -10 -17 -10 -21 0 -3 8 -6 8 -6 2z"/>
<path d="M4530 5633 c0 -12 28 -38 34 -32 2 2 -5 13 -15 23 -11 11 -19 15 -19
9z"/>
<path d="M4747 5459 c7 -7 15 -10 18 -7 3 3 -2 9 -12 12 -14 6 -15 5 -6 -5z"/>
<path d="M1120 5329 c0 -15 18 -19 23 -6 3 8 -1 14 -9 14 -8 0 -14 -4 -14 -8z"/>
<path d="M5140 5160 c0 -5 5 -10 11 -10 5 0 7 5 4 10 -3 6 -8 10 -11 10 -2 0
-4 -4 -4 -10z"/>
<path d="M815 5037 c-19 -24 -17 -39 4 -27 12 6 18 16 15 25 -7 18 -6 18 -19
2z"/>
<path d="M642 4824 c-8 -9 -9 -14 -2 -14 6 0 8 -6 4 -12 -4 -7 1 -5 12 4 11
11 15 21 9 27 -6 6 -15 4 -23 -5z"/>
<path d="M5464 4758 c10 -6 22 -6 26 -2 5 5 -3 10 -18 11 -22 1 -24 0 -8 -9z"/>
<path d="M5570 4596 c0 -21 26 -40 36 -25 4 8 3 9 -4 5 -11 -6 -16 6 -13 27 0
4 -3 7 -9 7 -5 0 -10 -6 -10 -14z"/>
<path d="M445 4521 c-6 -11 9 -23 19 -14 9 9 7 23 -3 23 -6 0 -12 -4 -16 -9z"/>
<path d="M5645 4480 c-3 -6 1 -7 9 -4 18 7 21 14 7 14 -6 0 -13 -4 -16 -10z"/>
<path d="M339 4338 c0 -2 -2 -13 -3 -25 -2 -19 0 -21 12 -11 9 8 10 14 3 16
-6 2 -9 8 -5 13 3 5 3 9 0 9 -3 0 -6 -1 -7 -2z"/>
<path d="M5876 3918 c3 -4 9 -8 15 -8 5 0 9 4 9 8 0 5 -7 9 -15 9 -8 0 -12 -4
-9 -9z"/>
<path d="M5880 3845 c0 -2 6 -8 13 -14 10 -8 14 -7 14 2 0 8 -6 14 -14 14 -7
0 -13 -1 -13 -2z"/>
<path d="M77 3339 c7 -7 15 -10 18 -7 3 3 -2 9 -12 12 -14 6 -15 5 -6 -5z"/>
<path d="M100 2579 c0 -5 5 -7 10 -4 6 3 10 8 10 11 0 2 -4 4 -10 4 -5 0 -10
-5 -10 -11z"/>
<path d="M495 1560 c-3 -5 -1 -10 4 -10 6 0 11 5 11 10 0 6 -2 10 -4 10 -3 0
-8 -4 -11 -10z"/>
<path d="M5485 1413 c3 -3 0 -12 -7 -20 -6 -7 -8 -16 -4 -20 3 -3 6 -1 6 6 0
7 4 10 9 7 11 -7 9 21 -2 29 -4 3 -5 2 -2 -2z"/>
<path d="M5190 1039 c0 -5 5 -7 10 -4 6 3 10 8 10 11 0 2 -4 4 -10 4 -5 0 -10
-5 -10 -11z"/>
<path d="M4995 850 c3 -5 8 -10 11 -10 2 0 4 5 4 10 0 6 -5 10 -11 10 -5 0 -7
-4 -4 -10z"/>
<path d="M4856 748 c3 -5 10 -6 15 -3 13 9 11 12 -6 12 -8 0 -12 -4 -9 -9z"/>
<path d="M1299 698 c-6 -21 -5 -38 2 -38 5 0 9 9 9 20 0 16 -7 28 -11 18z"/>
<path d="M4628 572 c4 -10 7 -12 10 -4 2 7 9 9 15 5 7 -3 8 -2 4 2 -14 16 -36
14 -29 -3z"/>
<path d="M1510 529 c0 -5 5 -7 12 -3 8 5 9 1 4 -12 -5 -14 -4 -16 5 -7 6 6 8
16 5 22 -9 14 -26 14 -26 0z"/>
<path d="M4444 489 c-4 -7 -3 -9 4 -5 5 3 13 0 15 -6 4 -9 6 -10 6 -1 1 17
-16 25 -25 12z"/>
<path d="M3920 256 c0 -2 8 -10 18 -17 15 -13 16 -12 3 4 -13 16 -21 21 -21
13z"/>
<path d="M3650 180 c0 -5 5 -10 11 -10 5 0 7 5 4 10 -3 6 -8 10 -11 10 -2 0
-4 -4 -4 -10z"/>
<path d="M2475 159 c-4 -6 -5 -12 -2 -15 2 -3 7 2 10 11 7 17 1 20 -8 4z"/>
<path d="M2531 144 c0 -11 3 -14 6 -6 3 7 2 16 -1 19 -3 4 -6 -2 -5 -13z"/>
</g>
</svg>
